# xmcd CD database file
#
# Track frame offsets:
#	150
#	25911
#	48914
#	64584
#	87302
#	103145
#	117008
#	132001
#	150431
#	164201
#	172778
#	183810
#
# Disc length: 2725 seconds
#
# Revision: 0
# Processed by: cddbd v1.5.2PL0 Copyright (c) Steve Scherf et al.
# Submitted via: CDex 1.70beta2
#
DISCID=8e0aa30c
DTITLE=Various Artist - WBFO Gives Me the Blues
DYEAR=2009
DGENRE=Blues
TTITLE0=Flyin' Blues Band - Pretty Little Red Head
TTITLE1=Maria Aurigema - Miracle Man
TTITLE2=Tommy Z - Watered Down Love
TTITLE3=Wanted by the FBI - Until the End of the World (live at Canalfest)
TTITLE4=Dennis King - Ice Cold Beer
TTITLE5=Terry Bellamy - Boogie on the Brent
TTITLE6=Gregg Juke and The Mighty No-Stars - No Parasol 
TTITLE7=The Thirsty Blues Band - Monkey on My Back
TTITLE8=The Blues Hounds - Enuf A Dat
TTITLE9=Lisa Rose - Feed Me Chocolate
TTITLE10=Laura Thomas and BroadBand - Not So Much Blues
TTITLE11=Bob Sowyrda - Pretty Woman Blues
EXTD=YEAR: 2009
EXTT0=
EXTT1=
EXTT2=
EXTT3=
EXTT4=
EXTT5=
EXTT6=
EXTT7=
EXTT8=
EXTT9=
EXTT10=
EXTT11=
PLAYORDER=
